<svg id="Layer_1" data-name="Layer 1" xmlns="http://www.w3.org/2000/svg" viewBox="0 0 502.94 507.18"><defs><style>.cls-1{fill:#8b0707;}</style></defs><title>emathy</title><path class="cls-1" d="M446.75,172.26c-.85,4.51-1.44,9.09-2.6,13.51a70.44,70.44,0,0,1-18.71,32.37q-17.18,17.28-34.26,34.67a13.27,13.27,0,0,0-2.83,4.27c-2.75,6.91-7.56,11.25-14.89,12.89-1.15.25-2.76,1.45-3,2.45-1.9,9.46-7.58,14.89-16.94,16.67-.48.09-.94.26-1.47.41-1.51,10.82-7.62,17.09-18.6,18.71-.33,1.54-.59,3.12-1,4.65-4.12,14.4-21.89,18.92-32.76,8.16C286,307.47,272.57,293.71,259,280c-20.06-20.24-40.28-40.32-60.13-60.77C179.43,199.22,173,175.2,181,148.5s26.66-43.67,54.27-49.16c23.38-4.65,44,2,61.47,18.18,3.66,3.39,4.13,7.28,1.43,10.14s-6.5,2.58-10.2-.83c-21.48-19.84-52.43-21.52-74.76-4a58.1,58.1,0,0,0-5.7,87c28.12,28.8,56.6,57.24,84.92,85.83,5.19,5.24,10.35,10.5,15.57,15.71,3.48,3.46,7.73,3.75,10.57.84s2.67-7-.9-10.61Q280,263.41,242.25,225.28c-1.48-1.5-3.11-3.7-3.13-5.59a7.57,7.57,0,0,1,3-5.76c1.63-1,4.42-.36,6.57.13,1.16.27,2.07,1.73,3,2.7q36.84,37.14,73.65,74.3c.79.8,1.54,1.64,2.4,2.37,2.92,2.47,6.58,2.5,9.19.12a7,7,0,0,0,.71-9.5,22.15,22.15,0,0,0-2.05-2.18q-29.81-30.12-59.67-60.17a12.92,12.92,0,0,0-5.95-3.13c-7.54-1.78-12.91-6-15.28-13.39s-1-14.23,4.47-19.78C282.25,162,305,138.17,328.72,115.49c19.69-18.77,43.69-23.85,69.5-15.14s41.3,27.45,47.07,54.11c.57,2.67,1,5.37,1.46,8Zm-61.06,65.4c11.21-10.62,23.47-21,34.24-32.77,12-13,16.11-29.33,13-46.73-4.13-22.9-17.4-38.89-39.69-46s-41.93-1.44-58.37,15c-21.64,21.65-43.13,43.46-64.67,65.21a19.27,19.27,0,0,0-2.48,2.79,7,7,0,0,0,1.14,8.89,6.44,6.44,0,0,0,8.57.37,26.26,26.26,0,0,0,2.73-2.55l42.19-42.63c5.9-6,7.94-5.84,13.85-.09,7.87,7.63,16.9,13,28.43,11.53,7.59-1,13.78-4.79,19-10.31,2.92-3.07,6.58-3.14,9.31-.57s2.9,6.08.16,9c-10.73,11.59-23.75,17.14-39.67,14.18a48.19,48.19,0,0,1-23.43-12l-7.07,5.6Zm-99.28-23.83c.45.52.82,1,1.25,1.44q28.74,29,57.49,58a14.92,14.92,0,0,0,2.26,2,6.69,6.69,0,0,0,10.06-7.76,13.75,13.75,0,0,0-3.21-4.49q-27.88-28.28-55.87-56.46c-.76-.76-1.61-1.44-2.43-2.16Zm17.5-17.78,60.71,59.1a10.44,10.44,0,0,0,1.13,1,6.72,6.72,0,0,0,8.61-.35,6.87,6.87,0,0,0,1.12-8.86,18.08,18.08,0,0,0-2.46-2.8q-28-28.34-56.12-56.64c-.68-.69-1.45-1.28-2-1.75Z"/><path class="cls-1" d="M273.5,58.26c7.36,1.25,14.78,2.22,22.07,3.78a137.51,137.51,0,0,1,38,14.5c4.14,2.3,5.44,5.88,3.54,9.29s-5.53,4.2-9.76,1.87C306.87,76.45,285,70.42,261.64,71.16a338.42,338.42,0,0,0-85.57,13.71c-33.43,9.88-53,33.47-62.79,65.81-4.15,13.74-7.43,27.7-13.76,40.68-1.65,3.38-1,6.28,1.87,8.7.29.24.54.52.81.79,13.12,12.77,13.68,16.14,5.34,32.54A263.6,263.6,0,0,1,80.41,276c-1.31,1.67-2.51,3.42-3.69,5.19A26.33,26.33,0,0,0,75.37,284c2.45,1.69,4.83,3.45,7.33,5,2,1.25,4.21,2.19,6.26,3.39,10.19,5.93,13.25,15.41,8.41,26.22-1.17,2.61-2.6,5.11-4.11,8,1.87,1.48,3.77,3,5.7,4.52,5.32,4.13,5.74,6.35,2.25,11.95-.45.72-.79,1.51-1.27,2.43a14.26,14.26,0,0,0,1.53,1.17c10.24,5.73,13.81,13.56,11,25.08a29.77,29.77,0,0,0,.61,17.31c2.21,6.28,7.7,9.26,14.23,7.71,28.11-6.66,55.13-16.74,82.31-26.29A126.16,126.16,0,0,0,230,361.15c5.69-3.22,9.73-8.06,9.92-15.31.1-3.56,3.18-5.81,6.69-5.64s5.83,2.65,5.92,6.43c.19,7.86-3.1,14.29-8.56,19.69-7.55,7.46-17,11.76-26.78,15.27-6.56,2.34-13.17,4.56-20,6.93,2.53,3.27,5,6.25,7.22,9.38a99.51,99.51,0,0,1,14.19,28.75c.58,1.89,1.2,2.9,3.49,2.89q69.73-.37,139.47-.6a11.77,11.77,0,0,0,1.58-.18c-3.26-7.21-7-14.12-9.58-21.46-8-23.18-12.66-47-11-71.68a83.67,83.67,0,0,1,1.07-8.93c.78-4.38,3.69-6.57,7.56-5.95,3.59.57,5.6,3.52,5,7.87-3.59,25.91,1.32,50.76,9.73,75,2.29,6.64,6.27,12.7,9.51,19,1.54,3,3.37,5.85,4.68,8.93,2.6,6.1-.09,10.11-6.68,10.16q-30.75.21-61.49.32-47.43.14-94.85.19c-6.09,0-7.2-1.27-9.35-7-3.29-8.73-6.92-17.35-10.88-25.79-1.67-3.55-4.35-6.71-7-9.72-5.62-6.53-6.22-6.39-14.27-3.9C161.41,400.26,147,404,133,408.69c-13.64,4.49-29.84-1-33.29-20.92-1-5.85-.35-12.15.46-18.11.93-6.82.64-8.49-5.24-12-8.85-5.24-9.42-6.71-7-17A3.15,3.15,0,0,0,86.75,338c-8.23-5.55-9.66-9.47-3.33-20.27.51-.86,1-1.75,1.42-2.64,3.38-6.63,2.64-9-3.93-12.58-1.2-.66-2.4-1.34-3.63-1.93-6.47-3.14-11.8-7.42-14.53-14.35V281c3-4.86,5.57-10,8.94-14.54a269.77,269.77,0,0,0,25.62-41.28c4-8.06,4-8.06-2.84-14-9-7.83-10.59-14.81-6.29-26.05,3.38-8.83,6.62-17.71,9.65-26.66,1.64-4.83,2.42-9.95,4.07-14.78,12.25-36,35.27-61.19,72.61-71.86,19.24-5.5,38.88-8.91,58.71-11.36,6.42-.8,12.85-1.5,19.28-2.25Z"/><path class="cls-1" d="M190.73,102.64c-.29,3.12-2.12,5-5.31,6.18-5.48,2-11.1,3.93-16.18,6.76-16.7,9.3-25.73,24.57-31.4,42.17-1.41,4.39-2.24,8.95-3.38,13.42s-4,6.67-7.64,6c-3.93-.79-5.74-4-4.85-8.62,3.64-19.13,10.8-36.65,24.22-51.07,9.85-10.59,22.13-17.34,36.1-21C186.9,95.27,190.63,98.05,190.73,102.64Z"/><path class="cls-1" d="M126.63,192.54a6.37,6.37,0,0,1-6.26,6.53,6.57,6.57,0,0,1-6.42-6.46,6.35,6.35,0,0,1,6.17-6.23A6.12,6.12,0,0,1,126.63,192.54Z"/></svg>