<svg id="Layer_1" data-name="Layer 1" xmlns="http://www.w3.org/2000/svg" viewBox="0 0 600 673.41"><defs><style>.cls-1{fill:#a53000;}.cls-2{fill:#fff;}</style></defs><title>enthus</title><path class="cls-1" d="M456,95.18q-8.6,10.89-17.14,21.75c3.82,3.55,7.47,6.62,10.73,10,3,3.19,2.92,6.41.08,10.2q-47.6,63.62-94.85,127.48a14.65,14.65,0,0,0-2.7,8.1c-.19,32.82-.62,65.66.07,98.47.41,19.12,2.66,38.2,4.2,57.29q3.72,46.07,7.58,92.12c1.21,14.78,2.54,29.54,3.59,44.33.33,4.61.68,9.44-.31,13.87-2.56,11.47-12.61,18.29-24.55,17.47a22.38,22.38,0,0,1-20.82-20.14c-2.2-23-4-46.13-5.86-69.21q-4.12-50.54-8.2-101.09a18.81,18.81,0,0,0-.48-2.23H294.45c-.8,9.31-1.63,18.71-2.41,28.11q-4.35,53-8.68,106.07c-1,12.61-1.84,25.25-3.2,37.83-1.44,13.23-12.11,21.67-25.38,20.64A22.66,22.66,0,0,1,234,572c1.46-22.77,3.51-45.5,5.35-68.24,2.54-31.38,4.62-62.8,7.79-94.11,4.66-45.9,2.09-91.9,2.72-137.84a11.9,11.9,0,0,0-2.4-6.71q-46.85-63.24-93.9-126.32c-4.87-6.54-4.8-8.64,1.08-14.4,2.48-2.43,5.35-4.45,8.61-7.13L146,95.18v-5c5.14-3.37,6.59-3.14,10.26,1.63.82,1.06,1.62,2.12,2.41,3.19q54.6,73.35,109.13,146.75a7.59,7.59,0,0,0,7,3.55q26-.27,52,0c3.57,0,5.64-1.13,7.75-4q55.35-74.65,110.93-149.15c3.88-5.21,5.31-5.46,10.56-2Z"/><path class="cls-2" d="M456,90.18c-5.25-3.46-6.68-3.21-10.56,2q-55.5,74.54-110.93,149.15c-2.11,2.83-4.18,4-7.75,4q-26-.28-52,0a7.59,7.59,0,0,1-7-3.55Q213.34,168.31,158.67,95c-.79-1.07-1.59-2.13-2.41-3.19-3.67-4.77-5.12-5-10.26-1.63v-4H456ZM300.84,234.39a42.37,42.37,0,1,0-42.22-42.22A42,42,0,0,0,300.84,234.39Z"/><path class="cls-1" d="M300.84,234.39A42.37,42.37,0,1,1,343.33,192,42.15,42.15,0,0,1,300.84,234.39Zm-26.21-28c7.37,10.5,16.75,15.34,28.54,14.56,10-.67,18-5.39,24-14.56Z"/></svg>