<svg id="Layer_1" data-name="Layer 1" xmlns="http://www.w3.org/2000/svg" viewBox="0 0 600 618.35"><defs><style>.cls-1{fill:#32125f;}</style></defs><title>learn</title><path class="cls-1" d="M300,555.82c-10.62-3.67-21.18-7.51-31.86-11q-82.74-27.09-165.55-54c-6.11-2-7.57-4-7.58-10.6,0-9.66-.11-19.33,0-29,0-2.92-.6-4.76-3.27-6.49C86,440.93,83.05,435.2,83,428.23q-.11-19,0-38a19.12,19.12,0,0,1,8.77-16.51c2.64-1.75,3.27-3.57,3.25-6.47-.13-16.83-.07-33.66-.07-50.49,0-8.22,3.89-12.05,11.57-9.64,12.59,4,24.19,1.92,36.37-2,24.52-8,49.39-14.81,74-22.34a24.75,24.75,0,0,0,8.44-4.83c5.6-4.72,10.89-9.81,16.23-14.83,2.87-2.7,5.88-4.09,10-2.81,1.08.34,3.44-.55,3.86-1.48a95.3,95.3,0,0,0,5.35-14.35c.37-1.43-1.06-4.18-2.47-5.11-18.87-12.43-30.79-29.54-35.63-51.62a9.78,9.78,0,0,0-1.84-4c-14.27-17.41-17.49-37.84-15.24-59.3a150.58,150.58,0,0,1,6.62-30.61c5-15.44,15.83-24.42,32.71-24.33a25,25,0,0,0,16.43-5.9A99.39,99.39,0,0,1,304,43.82h16a82.87,82.87,0,0,1,40.44,21.36C376.53,80.65,389.81,98,395,120.23c4.47,19.2,2.38,37.11-12.58,51.79-1,1-1.33,2.93-1.47,4.48-2.33,26.76-14.42,47.79-37,62.53-2.78,1.82-3.49,3.76-2.63,6.58,1,3.33,2.09,6.65,3.36,9.89,1.42,3.6,3.2,6.4,8.08,4.47,1.48-.58,3.79.62,5.59,1.33a7.35,7.35,0,0,1,2.66,2.23c11.95,14.18,27.54,21.31,45.32,25.83,23,5.86,45.57,13.62,68.38,20.34A22.5,22.5,0,0,0,484,310c5.09-.7,10.1-2,15.16-3.06,8.36-1.67,12,1.27,12,9.75,0,17.66-.09,35.33.1,53a12,12,0,0,0,2.45,6.56c3.32,4.42,5.36,9.12,5.33,14.71,0,12-.06,24,0,36a23,23,0,0,1-5.83,15.51,9.62,9.62,0,0,0-2.1,5.65c-.2,10.66-.08,21.33-.11,32,0,6.61-1.46,8.65-7.53,10.64-22.76,7.44-45.49,15-68.36,22.11-2.87.9-7.26.52-9.61-1.15-5.34-3.79-2.93-11.35,4.1-13.69,14.52-4.83,29.1-9.49,43.65-14.23,6.17-2,12.38-3.91,18.46-6.16,1.33-.49,3.09-2.2,3.13-3.41.29-7.81.15-15.62.15-24.08-6.31,1.73-12.19,3.31-18.05,5C464.09,458.77,455,452,455,438.66q-.06-19.74,0-39.49c0-10.72,5.43-17.89,15.85-20.83,8-2.26,16-4.35,23.95-6.51V324.39L311.25,362.82V536.47c2.47-.74,4.78-1.37,7.05-2.11q34.15-11.18,68.28-22.39c3.49-1.15,6.82-1.7,9.88.92,5,4.26,3,11.68-3.86,14-17.21,5.72-34.47,11.27-51.69,16.95-12,4-23.94,8-35.91,12Zm-5.27-19.18V362.82L111.23,324.4c-.1,1.83-.22,3-.22,4.13,0,14.65,0,29.31,0,44.29,6.74,1.82,13.32,3.53,19.87,5.35,10.62,2.95,16.1,10.12,16.13,21.16.05,12.66,0,25.33,0,38,0,14.44-8.9,21.44-22.83,17.86-4.27-1.09-8.5-2.37-13-3.64V476.8ZM444.91,318.46l0-1c-1.52-.52-3-1.1-4.58-1.55-15.46-4.57-30.77-9.8-46.45-13.49-15.06-3.54-28.1-9.78-38.1-21.72-2.53-3-5-3.19-8.68-1.76-26.79,10.52-54.08,11.56-81.74,3.75-5.36-1.52-11.26-5.35-15.87-4.14-5,1.32-8.93,7.1-13,11.27a31.52,31.52,0,0,1-14.88,8.5c-13.15,3.57-26.17,7.63-39.24,11.5l-25.29,7.54c2.18.64,3.12,1,4.09,1.19,43.63,9.11,87.27,18.11,130.86,27.41a47,47,0,0,0,21.59.07c12.92-3.16,26-5.54,39.05-8.27Zm-195-174.71A59.58,59.58,0,0,1,239.7,177a11.31,11.31,0,0,0-1.48,9.77c7.35,29.49,35.21,50.36,65,48.61,31.52-1.86,56.77-24.92,60.66-55.51.31-2.44,1-5.62-.15-7.31a51.42,51.42,0,0,1-9.08-26.06c-9-2.84-17.69-4.4-25.19-8.28S315.31,128,307.93,122.5C291.37,135,271.14,140.54,249.94,143.75Zm123,12.78,2-.08c6.76-10.19,7.65-21.4,4.39-32.86-6.9-24.3-22-42.73-42.91-56.26-14.3-9.24-29.81-10-45.27-2.94a101.91,101.91,0,0,0-18.75,11.26c-8.25,6.21-16.8,10.39-27.46,9.89-8.73-.41-14.29,4.38-17.25,12.46-6,16.4-8.26,33.24-5.33,50.52.93,5.53,3,10.87,4.61,16.29l1.52-.25c3.51-7,6.37-14.18,5-22.26-1.83-10.85-.52-12.8,10.41-14.14,1.16-.15,2.33-.16,3.48-.33,21.19-3.06,41.42-8.36,57.59-23.7,4.72-4.48,9.91-3.74,13.39,1.8,10,16,24.26,23.57,43.1,22.76,7.42-.31,9.92,2.78,10,10.28C371.45,144.82,372.39,150.68,372.93,156.53ZM130,440c.49-1.05.87-1.49.87-1.93.06-13.29.23-26.59-.08-39.88,0-1.53-2.48-3.79-4.24-4.36-7.1-2.3-14.36-4.09-21.57-6-5.54-1.48-5.9-1.2-5.93,4.76C99,402.7,99,412.84,99,423c0,8.42,0,8.43,8.19,10.71C114.79,435.81,122.4,437.9,130,440ZM471,417.3c0,6.16,0,12.33,0,18.49,0,3,.95,4.32,4.24,3.32,7.95-2.43,16-4.5,23.9-7.12,1.58-.52,3.61-2.82,3.65-4.35.3-12.32.21-24.65.14-37,0-2.84-1.16-4.23-4.46-3.24q-11.48,3.42-23.1,6.28c-3.15.79-4.44,2.44-4.39,5.61C471.08,405.3,471,411.3,471,417.3Zm-200.9-150c20.75,5.85,41.24,6,61.68-.08L324.73,248a80,80,0,0,1-47.53.05C274.79,254.66,272.57,260.69,270.12,267.34Z"/><path class="cls-1" d="M399,407.49c0-5-.08-10,0-15,.11-5.32,3.49-8.83,8.18-8.7,4.51.13,7.74,3.52,7.79,8.61q.15,15.45,0,30.91c-.06,5.07-3.38,8.43-7.92,8.45s-7.87-3.31-8-8.36c-.14-5.31,0-10.63,0-15.95Z"/><path class="cls-1" d="M207,407.87c0,5.15.11,10.31,0,15.45s-3.35,8.42-7.9,8.49-8-3.31-8-8.33q-.18-15.71,0-31.41c.06-5,3.59-8.33,8.13-8.23,4.35.1,7.62,3.32,7.77,8.08C207.12,397.23,207,402.55,207,407.87Z"/><path class="cls-1" d="M303,327.82c-5.82,0-11.64.09-17.45,0-5.1-.11-8.45-3.31-8.52-7.85s3.28-8,8.29-8.07q17.7-.19,35.4,0c5,.06,8.36,3.57,8.28,8.09s-3.47,7.74-8.55,7.85c-5.81.12-11.63,0-17.45,0Z"/><path class="cls-1" d="M317.56,215.88a34.61,34.61,0,0,1-30.26,1.84c-.87-.35-1.73-.72-2.58-1.1-3.71-1.69-4.71-6.3-3-9.93,1.81-3.88,6.16-6.13,9.9-4,6.45,3.7,12.24,3.62,18.69,0,3.89-2.2,7.46-.13,9.66,3.57s1.32,7.46-2.25,9.53Z"/><path class="cls-1" d="M273,159.83c2.66,0,5.32-.12,8,0,4.74.26,7.93,3.48,8,7.86a7.83,7.83,0,0,1-7.79,8c-5.47.2-11,.21-16.42,0a7.81,7.81,0,0,1-7.75-8.07c.09-4.35,3.3-7.56,8-7.82C267.7,159.72,270.37,159.84,273,159.83Z"/><path class="cls-1" d="M332.74,175.82c-2.49,0-5,.09-7.47,0-5-.24-8.33-3.59-8.25-8.11.08-4.35,3.29-7.65,8-7.81,5.3-.18,10.62-.19,15.93,0,4.75.16,7.93,3.46,8,7.84s-3.29,7.87-8.28,8.09C338.05,175.91,335.4,175.82,332.74,175.82Z"/></svg>