<svg id="Layer_1" data-name="Layer 1" xmlns="http://www.w3.org/2000/svg" viewBox="0 0 600 672"><defs><style>.cls-1{fill:#1d3479;}</style></defs><title>Artboard 1</title><path class="cls-1" d="M316,595.35c0-44,.12-88-.06-132-.08-18.68,6.33-34.28,19.6-47.46q53.37-53,106.43-106.33c11-10.93,25.54-10.94,34.64-.18a22,22,0,0,1,.59,28.09,58.89,58.89,0,0,1-4.73,5.14Q421.06,394.1,369.6,445.48a27.64,27.64,0,0,1-4,2.92L388.21,471a17.61,17.61,0,0,1,2.49-4q51.53-51.67,103.21-103.19c12.31-12.18,18.28-26.4,18.19-43.78-.28-50.31-.07-100.63-.13-150.94,0-9.6,3.33-17.28,12-22a22.2,22.2,0,0,1,31.23,11.19c.57,1.35,1.19,2.68,1.79,4v211a16.06,16.06,0,0,0-1.89,2.17q-43.29,71.61-86.45,143.28a13.38,13.38,0,0,0-1.59,6.56c-.11,23.33-.07,46.66-.07,70Z"/><path class="cls-1" d="M45,162.35c1.48-2.94,2.62-6.11,4.5-8.77a22,22,0,0,1,23.91-8.3,22.25,22.25,0,0,1,16.4,19.32,61.08,61.08,0,0,1,.18,6.49c0,49.48.22,99-.08,148.45-.11,17.74,5.92,32.2,18.52,44.65,34.48,34.08,68.64,68.49,102.88,102.81a25.27,25.27,0,0,1,2.9,4.28l21.88-21.87c-1.06-1.1-2.36-2.53-3.72-3.89q-52.12-52.14-104.24-104.28c-9.95-10-10.82-22.66-2.41-32.19a22.09,22.09,0,0,1,30.59-2.78,55.24,55.24,0,0,1,4.78,4.4c35,35,69.88,70.07,105,104.9,13.56,13.43,20.06,29.27,20,48.33-.23,43.82-.07,87.64-.07,131.45H135c0-23.33.06-46.66-.09-70a15.28,15.28,0,0,0-2.08-7.43Q90.38,447.29,47.67,376.8A35,35,0,0,0,45,373.35Z"/><path class="cls-1" d="M311,83.35c12.06,3,24.73,4.49,36.09,9.16,43.26,17.8,69.92,50.05,77.86,96.32,7.12,41.49-4.63,78.13-33.89,108.16-29.68,30.47-66.49,43.1-108.69,36.64-44.78-6.86-77.47-31.59-95.94-72.74C167,217.6,171.59,175.38,198.69,136.33c18-25.91,43-42.17,73.72-49.56,6.12-1.47,12.39-2.29,18.59-3.42Zm-10.2,60a65,65,0,1,0,65.18,65A65.2,65.2,0,0,0,300.8,143.37Z"/><path class="cls-1" d="M336,208.34a35.25,35.25,0,0,1-35.08,35c-19.15-.09-35-16.14-34.84-35.2a35,35,0,0,1,69.92.23Z"/></svg>