<svg id="Layer_1" data-name="Layer 1" xmlns="http://www.w3.org/2000/svg" viewBox="0 0 600 578.82"><defs><style>.cls-1{fill:#356c15;}</style></defs><title>problem solv</title><path class="cls-1" d="M278.51,247.21c14.9,0,28,.12,41.1-.05,9.63-.12,16,1.42,13.4,14-1.89,9.12,6.35,17.17,15.14,17.09s16.51-8.05,14.54-17.35c-2.46-11.57,3-13.81,12.46-13.71,12.32.13,24.65.28,37-.05,10.38-.27,13.59,4.13,12.45,14.37-5.69,51.17-30.32,90.45-74,117.23-8.37,5.13-11.3,10.26-10.55,19.39a210.62,210.62,0,0,1,.08,24.62c-.34,9.88-.85,19.07,9.54,25.58,3.54,2.23,7,10.92,5.39,13.94-8,15.12,8,32.71-5.12,46.22-4.2,4.31-11.2,8.16-17,8.26-41,.72-82.13.86-123.19.2-18.22-.29-27.19-15.78-21.16-33.06a18.08,18.08,0,0,0-.11-11c-3.94-11.46-1.71-20.63,7.52-28.73,2.86-2.51,4-7.09,5.66-10.82.46-1,.07-2.44.07-3.67,0-13.55,3.82-28.79-1.17-40.15C196,379.14,181.75,373.1,172,365c-47.09-39-66-104.69-47.39-163.93S196.51,98.88,257.45,93.87c20.29-1.67,21.06-1,21.07,18.95,0,16.83.11,33.67,0,50.51-.11,12.84-3.42,15.13-14.47,9.57-8.24-4.14-16.22-3.76-20.35,4.12-2.5,4.77-2.37,13.21.29,17.87,4.44,7.78,12.53,7.47,20.55,3.33,10.2-5.26,13.76-2.86,14,9.07C278.68,220,278.51,232.61,278.51,247.21ZM408.88,263H380.16c-6.85,21.48-15.73,29.9-30.94,30.41-16.17.53-25.15-7.37-34-30.44-13.19,0-26.7-.06-40.21,0-8.09.06-12.07-3.35-11.81-11.88.36-11.38.09-22.77.09-34.08-24.34-1.18-37.95-11.38-38.12-29.49-.07-6.88,1.32-14.33,4.07-19.8,5.84-11.6,21.08-15.5,33.4-17.32V109.47a25.86,25.86,0,0,0-4.18-.36C197.86,114.72,147.29,159.42,135.3,218c-12.5,61.06,15.3,121.94,69.83,150.88,9,4.79,12.39,10,12,19.94-.72,16.64-.2,33.34-.2,50.41H247.3V340.9c-21-2.64-30.63-10.67-30.29-24.66.28-11.71,10.18-21.93,21.92-22.65,14.19-.86,22.21,8.48,25.6,30.37,2.21.2,4.59.58,7,.57a44.73,44.73,0,0,0,5.75-.71c3.79-21.54,11.06-30.33,24.67-30.27a23.61,23.61,0,0,1,22.83,20.29c1.79,13.69-5.65,20.72-29.63,28.16v97.22h29.83c0-17.46.56-34.23-.22-50.94-.44-9.64,3.17-14.46,11.54-19C377.57,346.78,401.14,311.62,408.88,263ZM271.13,455.6q-28.32,0-56.66,0c-5.79,0-12-.13-12,7.83,0,5.15,7.51,7,11.61,7,37.76.54,75.54.32,113.31.31,5.9,0,12,.05,12-9.25,0-4.3-7.54-5.45-11.65-5.61C308.92,455.19,290,455.6,271.13,455.6Zm-.7,46c19.29,0,38.6.43,57.85-.36a6.11,6.11,0,0,0,1.77-.35c6.54-2.31,6.44-11.91-.11-14.17a6,6,0,0,0-1.85-.34q-57.24-.85-114.49,0a5.53,5.53,0,0,0-1.77.33c-6.57,2.26-6.48,11.9.1,14.16a6.55,6.55,0,0,0,1.88.38C232.66,502,251.56,501.56,270.43,501.56Zm-6.53-61.69,14-.64V340.62h-14ZM241.14,324.31a6.63,6.63,0,0,0,6.78-6.5c0-4.48-1.8-8.14-7.75-8.15-2.35,0-6.82,2.63-6.81,6.42C233.37,322.49,236.47,324.2,241.14,324.31Zm66.48-14.82c-3.36-3.28-9.22-3.46-12.19.17-2.24,2.74-2.63,4.59-2.24,7.06.27,1.68,4.84,5.9,8,5.69,4-.26,5.5-.85,7-3.79C309.78,315.53,310.63,312.44,307.62,309.49Z"/><path class="cls-1" d="M496,224.28c-8.38,23.48-18.1,31.81-35,30.48-15.23-1.21-24.49-10.6-28.9-30.47-11.83,0-24,0-36.21,0-16.91,0-16.92,0-16.94-17.44,0-9.36,0-18.73,0-27.92-26.56-3.31-38.77-13.54-38.75-31.69S352.76,118.4,379,115.31c0-15.83.33-31.8-.13-47.75-.28-9.68,3.67-13.06,13.14-12.92,81.65,1.18,152.93,76.74,148.7,157.66-.47,8.93-4.22,12.42-13,12.08C517.08,224,506.42,224.28,496,224.28Zm27.42-15.18c6.18-75.26-67.94-141.44-129.31-136.68,0,16.66,0,33.42,0,50.17-.06,15.31-1.68,15.63-16.09,11.35-5.42-1.61-15,.28-18.06,4.19s-2.88,14.32.33,18.2,12.62,5.29,18,3.64c13.46-4.1,15.68-3.4,15.78,11,.08,12.5,0,25,0,38.1,16.52,0,30.85,0,45.19,0,7.13,0,10.28,2.75,9.65,10.52-1.06,13,4.08,19.5,14.2,19.74s15.87-6.5,14.77-19c-.74-8.28,2.45-11.32,10.25-11.23C500,209.2,511.79,209.1,523.45,209.1Z"/></svg>