<svg id="Layer_1" data-name="Layer 1" xmlns="http://www.w3.org/2000/svg" viewBox="0 0 600 600"><defs><style>.cls-1{fill:#b58900;}.cls-2{fill:#014c04;}.cls-3{fill:#a53030;}.cls-4{fill:#1d3479;}</style></defs><title>teamwork</title><path class="cls-1" d="M514,330.35c0,8.86.15,17.34-.17,25.8-.05,1.26-2.15,3.07-3.65,3.56q-21.84,7.08-43.81,13.69c-3.4,1-5,2.85-6.28,6.13-4,10.36-8.38,20.61-12.94,30.75a7.18,7.18,0,0,0,.23,7.34c8.25,14.64,16.32,29.36,24.67,44.44l-34.7,34.58c-6.32,6.31-6.31,6.31-14.14,1.81-12.12-7-24.31-13.82-36.33-21-3-1.78-5.13-1.44-8.14-.07q-15,6.79-30.28,12.76c-3,1.19-4.85,2.47-5.77,5.85-4,14.76-8.53,29.39-12.57,44.14-1,3.64-2.39,5.06-6.37,5-16-.27-32-.24-48,0-3.51,0-4.9-1.09-5.81-4.38-4.17-15.06-8.69-30-12.85-45.1-.82-2.94-2.33-4.24-5.05-5.34-10.44-4.27-20.71-9-31.17-13.21a8.25,8.25,0,0,0-6.18.19c-14.15,7.41-28.11,15.17-42.26,22.6-1.44.76-4.47.83-5.42-.13C154.3,487.07,141.79,474.14,129,461c7.23-13.38,14-26.93,21.76-39.82,4-6.67,4.15-11.75.22-18.48-4.22-7.26-7-15.42-9.82-23.4-1.37-3.86-3.21-5.94-7.22-7-14.61-3.94-29.1-8.34-43.69-12.34-3.31-.91-4.49-2.31-4.35-5.83.31-7.79.1-15.6.1-23.77h91.89c1.35,39.53,16.71,72.25,48.24,96.56,23,17.73,49.37,25.6,78.39,24.73,61.06-1.81,116-50.81,117.7-121.28Z"/><path class="cls-1" d="M55.55,261.49h491v38.35h-491Z"/><path class="cls-2" d="M217.11,240.56c0-18.68-.54-36.85.15-55,.64-16.63,14.86-31.41,31.49-33.2,9.23-1,18.63-.63,27.95-.5,1.54,0,3.53,1.69,4.51,3.14,5.2,7.73,10.14,15.63,15.7,24.29,3.95-6.18,8.12-11.59,11.07-17.59,4-8.11,9.65-11.41,18.65-10.11,7.05,1,14.44.15,21.3,1.75,17.88,4.18,28.84,18.69,28.93,37,.07,15,0,30,0,45,0,1.63-.14,3.25-.22,5.18Z"/><path class="cls-3" d="M196.59,231.27H87V226c0-14.15.55-28.33-.13-42.46-.92-19,13.91-34.7,34.3-34.94,5.5-.06,11,.21,16.48-.07,3.81-.19,6.25,1.2,8.19,4.4,4,6.63,8.3,13.12,12.82,20.22,4.56-7.13,8.86-13.63,12.92-20.27,1.84-3,4.07-4.55,7.71-4.32,8.61.55,17.24.83,25.85,1.39,1.7.11,3.35,1,5.62,1.75-6.9,8.24-12,16.9-13.2,27-1,8.22-.8,16.6-.92,24.92C196.49,212.74,196.59,221.86,196.59,231.27Z"/><path class="cls-4" d="M502.41,231.3H397.16v-4.89c0-11.82-.17-23.65,0-35.47a56,56,0,0,0-13.36-38.19c-.52-.62-.91-1.33-2.27-3.33,7.21-.43,13.44-1.26,19.64-1.07,18.78.57,13.05-2.45,23.11,12.72,2.47,3.72,4.84,7.51,7.78,12.08,4.23-6.64,8.33-12.59,11.9-18.84,2.43-4.27,5.43-6.19,10.44-5.8,6.29.48,12.69-.17,18.95.5,17.23,1.82,29.31,15.41,29.41,32.74.09,15.82,0,31.64,0,47.45A16.06,16.06,0,0,1,502.41,231.3Z"/><path class="cls-2" d="M297.29,137.47c-22.53.07-40.88-18.1-40.81-40.39a40.2,40.2,0,0,1,40.13-39.95c21.8,0,40.49,17.78,40.5,38.48C337.12,119,319.64,137.4,297.29,137.47Z"/><path class="cls-4" d="M431.64,135.3a35.84,35.84,0,1,1,36.32-35C467.66,119.77,451.3,135.53,431.64,135.3Z"/><path class="cls-3" d="M122.9,99.53a35.8,35.8,0,1,1,35.41,35.76A35.78,35.78,0,0,1,122.9,99.53Z"/></svg>